# xmcd
#
# Track frame offsets:
#	150
#	11160
#	25172
#	39027
#	56287
#	68462
#	79587
#	94922
#	105635
#	120407
#	133307
#	151305
#	161762
#	173005
#	182545
#	192955
#	211100
#	225422
#	237512
#	248495
#
# Disc length: 3466 seconds
#
# Revision: 2
# Processed by: cddbd v1.4PL0 Copyright (c) Steve Scherf et al.
# Submitted via: CDmax 2.0
#
DISCID=ee0d8814
DTITLE=Willie Nelson and Leon Russell - One For the Road
DYEAR=1979
DGENRE=Country
TTITLE0=Detour
TTITLE1=I Saw the Light
TTITLE2=Heartbreak Hotel
TTITLE3=Let the Rest of the World Go By
TTITLE4=Trouble In Mind
TTITLE5=Don't Fence Me In
TTITLE6=The Wild Side of Life
TTITLE7=Ridin' Down the Canyon
TTITLE8=Sioux City Sue
TTITLE9=You Are My Sunshine
TTITLE10=Danny Boy
TTITLE11=Always
TTITLE12=Summertime
TTITLE13=Because of You
TTITLE14=Am I Blue
TTITLE15=Tenderly
TTITLE16=Far Away Places
TTITLE17=That Lucky Old Sun
TTITLE18=Stormy Weather
TTITLE19=One For My Baby and "One More For the Road"
EXTD=LABEL =CBS Records Inc.\nID =CGK36064\nUPC =none\nCOPYRIGHT =1979
EXTT0=
EXTT1=
EXTT2=
EXTT3=
EXTT4=
EXTT5=
EXTT6=
EXTT7=
EXTT8=
EXTT9=
EXTT10=
EXTT11=
EXTT12=
EXTT13=
EXTT14=
EXTT15=
EXTT16=
EXTT17=
EXTT18=
EXTT19=
PLAYORDER=
